<svg width="122" height="24" viewBox="0 0 122 24" fill="none" xmlns="http://www.w3.org/2000/svg">
<path d="M8.88035 18.7348L5.82073 15.6752C3.65661 13.5111 0 15.0409 0 18.1005V22.093H17.7607V9.85449L8.88035 18.7348Z" fill="#BDFF00"/>
<path d="M8.88035 5.26534L11.94 8.32496C14.1041 10.4891 17.7607 8.95927 17.7607 5.89965V1.90723H0V14.1457L8.88035 5.26534Z" fill="#BDFF00"/>
<path d="M30.035 18.2225C28.3786 18.2225 26.9509 17.8702 25.7518 17.1656C24.5651 16.461 23.9718 15.2805 23.9718 13.6241H26.4564C26.4564 14.4276 26.8211 15.0024 27.5504 15.3485C28.292 15.6823 29.1202 15.8492 30.035 15.8492C30.8879 15.8492 31.6543 15.7132 32.3342 15.4412C33.0264 15.1569 33.3725 14.6934 33.3725 14.0506C33.3725 13.618 33.2118 13.2718 32.8904 13.0123C32.5814 12.7403 32.1858 12.5363 31.7037 12.4004C31.234 12.2644 30.5727 12.1099 29.7198 11.9368C28.5825 11.7143 27.6554 11.4856 26.9385 11.2508C26.2339 11.0159 25.6282 10.6327 25.1214 10.1012C24.6146 9.5573 24.3612 8.81563 24.3612 7.87617C24.3612 6.96145 24.6393 6.20123 25.1956 5.59553C25.7518 4.98983 26.4626 4.54483 27.3279 4.26052C28.1932 3.97621 29.0955 3.83406 30.035 3.83406C30.9868 3.83406 31.9077 3.99476 32.7977 4.31615C33.6877 4.63754 34.4108 5.11345 34.9671 5.74387C35.5357 6.37429 35.82 7.12832 35.82 8.00597H33.0573C33.0573 7.37554 32.7606 6.912 32.1673 6.61533C31.5863 6.3063 30.8755 6.15179 30.035 6.15179C29.2315 6.15179 28.5331 6.30012 27.9398 6.59679C27.3588 6.8811 27.0683 7.33846 27.0683 7.96888C27.0683 8.35208 27.2166 8.66111 27.5133 8.89597C27.81 9.11847 28.1808 9.29771 28.6258 9.43369C29.0708 9.5573 29.7012 9.69327 30.5171 9.84161C31.679 10.0641 32.6247 10.299 33.354 10.5462C34.0833 10.7811 34.7075 11.1766 35.2267 11.7329C35.7582 12.2891 36.024 13.0493 36.024 14.0135C36.024 14.99 35.7397 15.7935 35.1711 16.4239C34.6148 17.0544 33.8793 17.5117 32.9646 17.796C32.0622 18.0803 31.0857 18.2225 30.035 18.2225ZM42.7142 17.9444C42.2198 18.1174 41.7439 18.204 41.2865 18.204C40.5201 18.204 39.8835 17.9691 39.3767 17.4994C38.8823 17.0296 38.635 16.2633 38.635 15.2002V10.2681H36.8921V7.98742H38.635V4.79823H41.0084V7.98742H42.9367V10.2681H41.0084V14.9406C41.0084 15.2991 41.1011 15.5648 41.2865 15.7379C41.4719 15.911 41.7068 15.9975 41.9911 15.9975C42.2507 15.9975 42.4917 15.9419 42.7142 15.8306V17.9444ZM44.8439 7.98742H47.2544V9.19264C47.5634 8.71056 47.9528 8.3768 48.4225 8.19138C48.9046 8.00597 49.4423 7.91326 50.0356 7.91326C50.3076 7.91326 50.5054 7.91944 50.629 7.9318V10.231C49.6524 10.231 48.849 10.404 48.2185 10.7502C47.6005 11.0839 47.2915 11.7452 47.2915 12.7341V18H44.8439V7.98742ZM56.4308 18.2225C55.4667 18.2225 54.5952 18 53.8164 17.555C53.0377 17.0976 52.4258 16.4734 51.9808 15.6823C51.5358 14.8912 51.3133 14.0073 51.3133 13.0308C51.3133 11.9801 51.5234 11.0592 51.9437 10.2681C52.3764 9.47695 52.9697 8.86507 53.7237 8.43243C54.4778 7.98742 55.3369 7.76492 56.301 7.76492C57.2034 7.76492 58.0316 7.97506 58.7856 8.39534C59.552 8.81563 60.1701 9.47695 60.6398 10.3793C61.1095 11.2817 61.3444 12.4189 61.3444 13.791H53.7794C53.7794 14.236 53.903 14.6378 54.1502 14.9962C54.3974 15.3547 54.7188 15.639 55.1144 15.8492C55.5223 16.0469 55.9611 16.1458 56.4308 16.1458C57.0118 16.1458 57.5248 16.016 57.9698 15.7564C58.4148 15.4969 58.7547 15.1693 58.9896 14.7737L60.9179 15.6452C60.51 16.4239 59.9043 17.0482 59.1009 17.5179C58.3097 17.9876 57.4197 18.2225 56.4308 18.2225ZM58.6558 11.807C58.6558 11.5227 58.5693 11.2322 58.3963 10.9356C58.2356 10.6265 57.976 10.367 57.6175 10.1568C57.2714 9.93431 56.8326 9.82306 56.301 9.82306C55.7942 9.82306 55.3616 9.93431 55.0031 10.1568C54.6446 10.367 54.3727 10.6265 54.1873 10.9356C54.0142 11.2446 53.9277 11.5351 53.9277 11.807H58.6558ZM66.2309 18.2225C65.1802 18.2225 64.3396 17.9691 63.7092 17.4623C63.0788 16.9431 62.7636 16.2571 62.7636 15.4041C62.7636 13.9208 63.6041 12.9257 65.2853 12.4189C65.7303 12.2829 66.3669 12.1346 67.1951 11.9739C67.9367 11.8379 68.4683 11.702 68.7897 11.566C69.1111 11.43 69.2718 11.2075 69.2718 10.8985C69.2718 10.6389 69.1296 10.4349 68.8453 10.2866C68.5733 10.1259 68.2025 10.0394 67.7328 10.027C67.2754 10.027 66.8366 10.1383 66.4163 10.3608C65.996 10.5833 65.7365 10.8614 65.6376 11.1952L63.153 10.3979C63.4496 9.52021 63.9997 8.87125 64.8032 8.45097C65.619 8.03069 66.5708 7.82055 67.6586 7.82055C68.9813 7.82055 70.0258 8.1234 70.7922 8.7291C71.5709 9.32243 71.9603 10.1754 71.9603 11.2879V18H69.4015V17.0358C68.9689 17.4437 68.4683 17.7466 67.8997 17.9444C67.331 18.1298 66.7748 18.2225 66.2309 18.2225ZM67.3805 16.1273C68.3817 15.9295 69.0493 15.503 69.383 14.8479V13.142C69.1481 13.3275 68.8638 13.4758 68.5301 13.5871C68.1963 13.6859 67.7637 13.7848 67.2322 13.8837C66.5399 14.0197 66.0393 14.168 65.7303 14.3287C65.4336 14.4771 65.2853 14.7305 65.2853 15.0889C65.2853 15.4474 65.4089 15.7255 65.6561 15.9233C65.9033 16.1087 66.2494 16.2014 66.6944 16.2014C66.9417 16.2014 67.1704 16.1767 67.3805 16.1273ZM74.1233 7.98742H76.4411V9.24827C76.7501 8.77854 77.158 8.41389 77.6648 8.1543C78.184 7.89472 78.7959 7.76492 79.5005 7.76492C80.9838 7.76492 82.0592 8.43243 82.7267 9.76744C83.0358 9.12466 83.4808 8.63021 84.0617 8.28409C84.6427 7.93798 85.3226 7.76492 86.1013 7.76492C86.7688 7.76492 87.3993 7.90708 87.9926 8.19138C88.5859 8.47569 89.068 8.90215 89.4389 9.47077C89.8221 10.0394 90.0137 10.7316 90.0137 11.5475V18H87.5661V12.4931C87.5661 11.6896 87.3869 11.0777 87.0284 10.6574C86.6823 10.2372 86.2002 10.027 85.5822 10.027C84.9147 10.027 84.3708 10.2804 83.9505 10.7872C83.5426 11.294 83.3386 11.9677 83.3386 12.8083V18H80.8726V12.4931C80.8726 11.6649 80.6871 11.0468 80.3163 10.6389C79.9578 10.231 79.4634 10.027 78.833 10.027C78.1654 10.027 77.6154 10.2804 77.1827 10.7872C76.7625 11.294 76.5523 11.9677 76.5523 12.8083V18H74.1233V7.98742ZM97.9582 18.2225C97.2907 18.2225 96.6603 18.0803 96.067 17.796C95.486 17.4994 95.0595 17.1162 94.7876 16.6464V18H92.303V4.05656H94.7505V9.35952C95.0348 8.88979 95.4613 8.5066 96.0299 8.20993C96.5985 7.91326 97.1919 7.76492 97.8099 7.76492C98.6505 7.76492 99.3983 7.98742 100.053 8.43243C100.721 8.86507 101.24 9.47077 101.611 10.2495C101.982 11.0283 102.167 11.9121 102.167 12.901C102.167 13.927 101.988 14.8479 101.63 15.6637C101.271 16.4672 100.77 17.0976 100.128 17.555C99.4972 18 98.7741 18.2225 97.9582 18.2225ZM94.8803 12.9937C94.8803 13.8961 95.1028 14.6316 95.5478 15.2002C96.0052 15.7564 96.5923 16.0346 97.3093 16.0346C98.0015 16.0346 98.5701 15.7441 99.0151 15.1631C99.4725 14.5698 99.7012 13.8219 99.7012 12.9195C99.7012 12.0666 99.4787 11.3682 99.0337 10.8243C98.5887 10.2804 98.0139 10.0085 97.3093 10.0085C96.5923 10.0085 96.0052 10.2866 95.5478 10.8429C95.1028 11.3991 94.8803 12.1161 94.8803 12.9937ZM108.562 18.2225C107.597 18.2225 106.726 18 105.947 17.555C105.168 17.0976 104.557 16.4734 104.112 15.6823C103.667 14.8912 103.444 14.0073 103.444 13.0308C103.444 11.9801 103.654 11.0592 104.074 10.2681C104.507 9.47695 105.1 8.86507 105.854 8.43243C106.608 7.98742 107.468 7.76492 108.432 7.76492C109.334 7.76492 110.162 7.97506 110.916 8.39534C111.683 8.81563 112.301 9.47695 112.771 10.3793C113.24 11.2817 113.475 12.4189 113.475 13.791H105.91C105.91 14.236 106.034 14.6378 106.281 14.9962C106.528 15.3547 106.85 15.639 107.245 15.8492C107.653 16.0469 108.092 16.1458 108.562 16.1458C109.143 16.1458 109.656 16.016 110.101 15.7564C110.546 15.4969 110.885 15.1693 111.12 14.7737L113.049 15.6452C112.641 16.4239 112.035 17.0482 111.232 17.5179C110.44 17.9876 109.55 18.2225 108.562 18.2225ZM110.787 11.807C110.787 11.5227 110.7 11.2322 110.527 10.9356C110.366 10.6265 110.107 10.367 109.748 10.1568C109.402 9.93431 108.963 9.82306 108.432 9.82306C107.925 9.82306 107.492 9.93431 107.134 10.1568C106.775 10.367 106.503 10.6265 106.318 10.9356C106.145 11.2446 106.058 11.5351 106.058 11.807H110.787ZM119.96 17.9444C119.465 18.1174 118.989 18.204 118.532 18.204C117.766 18.204 117.129 17.9691 116.622 17.4994C116.128 17.0296 115.88 16.2633 115.88 15.2002V10.2681H114.138V7.98742H115.88V4.79823H118.254V7.98742H120.182V10.2681H118.254V14.9406C118.254 15.2991 118.347 15.5648 118.532 15.7379C118.717 15.911 118.952 15.9975 119.237 15.9975C119.496 15.9975 119.737 15.9419 119.96 15.8306V17.9444Z" fill="#BDFF00"/>
</svg>
