<svg width="260" height="51" viewBox="0 0 260 51" fill="none" xmlns="http://www.w3.org/2000/svg">
<path d="M18.8707 39.8116L12.3691 33.3099C7.7703 28.7112 0 31.962 0 38.4637V46.9478H37.7415V20.9409L18.8707 39.8116Z" fill="#BDFF00"/>
<path d="M18.8707 11.1887L25.3725 17.6904C29.9712 22.2892 37.7415 19.0383 37.7415 12.5366V4.05273H0V30.0595L18.8707 11.1887Z" fill="#BDFF00"/>
<path d="M63.824 38.7229C60.3042 38.7229 57.2703 37.9743 54.7224 36.477C52.2007 34.9797 50.9399 32.4711 50.9399 28.9513H56.2197C56.2197 30.6587 56.9945 31.8802 58.5443 32.6156C60.1204 33.325 61.8803 33.6796 63.824 33.6796C65.6367 33.6796 67.2653 33.3906 68.7098 32.8126C70.1808 32.2085 70.9164 31.2236 70.9164 29.8576C70.9164 28.9383 70.5749 28.2027 69.892 27.6512C69.2351 27.0732 68.3947 26.6397 67.3702 26.3509C66.3721 26.0619 64.9666 25.7336 63.1542 25.3658C60.7377 24.893 58.7676 24.407 57.2442 23.908C55.7469 23.4089 54.4598 22.5946 53.3828 21.4651C52.3057 20.3093 51.7672 18.7333 51.7672 16.7369C51.7672 14.7932 52.3584 13.1777 53.5403 11.8906C54.7224 10.6035 56.2327 9.65785 58.0714 9.05369C59.9102 8.44953 61.8278 8.14746 63.824 8.14746C65.8466 8.14746 67.8037 8.48895 69.695 9.1719C71.5862 9.85486 73.1228 10.8662 74.305 12.2058C75.5132 13.5454 76.1174 15.1478 76.1174 17.0128H70.2464C70.2464 15.6731 69.6161 14.6881 68.3552 14.0577C67.1208 13.401 65.6103 13.0726 63.824 13.0726C62.1168 13.0726 60.6325 13.3878 59.3717 14.0183C58.1371 14.6224 57.5198 15.5943 57.5198 16.934C57.5198 17.7483 57.8351 18.4049 58.4654 18.904C59.0959 19.3768 59.8841 19.7577 60.8297 20.0467C61.7753 20.3093 63.1149 20.5983 64.8485 20.9135C67.3177 21.3863 69.3271 21.8855 70.8769 22.4108C72.4267 22.9099 73.7533 23.7504 74.8564 24.9325C75.986 26.1144 76.5507 27.7298 76.5507 29.7788C76.5507 31.8538 75.9465 33.5613 74.7382 34.9009C73.5563 36.2407 71.9934 37.2124 70.0494 37.8166C68.132 38.4207 66.0568 38.7229 63.824 38.7229ZM90.7675 38.1319C89.7167 38.4996 88.7054 38.6836 87.7337 38.6836C86.1051 38.6836 84.7523 38.1844 83.6754 37.1863C82.6245 36.188 82.0992 34.5596 82.0992 32.3005V21.8198H78.3956V16.9734H82.0992V10.1963H87.1427V16.9734H91.2404V21.8198H87.1427V31.7489C87.1427 32.5107 87.3397 33.0753 87.7337 33.4431C88.1277 33.811 88.6268 33.9948 89.231 33.9948C89.7826 33.9948 90.2947 33.8766 90.7675 33.6401V38.1319ZM95.2932 16.9734H100.415V19.5344C101.072 18.51 101.899 17.8008 102.898 17.4068C103.922 17.0128 105.065 16.8158 106.326 16.8158C106.903 16.8158 107.324 16.8289 107.586 16.8552V21.741C105.511 21.741 103.804 22.1086 102.464 22.8443C101.151 23.5534 100.494 24.9586 100.494 27.06V38.2501H95.2932V16.9734ZM119.915 38.7229C117.866 38.7229 116.014 38.2501 114.36 37.3045C112.705 36.3325 111.405 35.0061 110.459 33.325C109.513 31.6439 109.04 29.7656 109.04 27.6905C109.04 25.4578 109.487 23.5009 110.38 21.8198C111.3 20.1386 112.56 18.8384 114.163 17.919C115.765 16.9734 117.591 16.5005 119.639 16.5005C121.557 16.5005 123.317 16.9471 124.919 17.8402C126.548 18.7333 127.861 20.1386 128.859 22.0561C129.858 23.9737 130.357 26.3902 130.357 29.306H114.281C114.281 30.2516 114.544 31.1054 115.069 31.867C115.594 32.6288 116.277 33.233 117.118 33.6796C117.985 34.0997 118.917 34.3099 119.915 34.3099C121.15 34.3099 122.24 34.0341 123.186 33.4824C124.131 32.931 124.854 32.2348 125.353 31.3942L129.45 33.2461C128.584 34.9009 127.297 36.2275 125.589 37.2256C123.908 38.2237 122.017 38.7229 119.915 38.7229ZM124.643 25.09C124.643 24.4858 124.46 23.8685 124.092 23.2382C123.75 22.5814 123.199 22.03 122.437 21.5833C121.701 21.1105 120.769 20.8741 119.639 20.8741C118.563 20.8741 117.643 21.1105 116.881 21.5833C116.12 22.03 115.542 22.5814 115.148 23.2382C114.78 23.8949 114.596 24.5122 114.596 25.09H124.643ZM140.741 38.7229C138.508 38.7229 136.722 38.1844 135.382 37.1075C134.042 36.0042 133.372 34.5464 133.372 32.7338C133.372 29.5818 135.159 27.4672 138.731 26.3902C139.677 26.1012 141.029 25.7861 142.789 25.4446C144.365 25.1556 145.495 24.8668 146.178 24.5778C146.861 24.2888 147.202 23.816 147.202 23.1594C147.202 22.6077 146.9 22.1742 146.296 21.8591C145.718 21.5176 144.93 21.3338 143.932 21.3075C142.96 21.3075 142.028 21.544 141.135 22.0168C140.241 22.4896 139.69 23.0806 139.48 23.7899L134.2 22.0956C134.83 20.2305 135.999 18.8515 137.706 17.9584C139.44 17.0653 141.463 16.6188 143.774 16.6188C146.585 16.6188 148.804 17.2623 150.433 18.5494C152.088 19.8102 152.916 21.6228 152.916 23.9869V38.2501H147.478V36.2012C146.559 37.0679 145.495 37.7116 144.287 38.1319C143.078 38.5259 141.896 38.7229 140.741 38.7229ZM143.183 34.2706C145.311 33.8503 146.729 32.944 147.439 31.5519V27.9268C146.94 28.321 146.335 28.6362 145.626 28.8727C144.917 29.0826 143.998 29.2928 142.868 29.5029C141.397 29.7919 140.333 30.1071 139.677 30.4486C139.046 30.7639 138.731 31.3024 138.731 32.064C138.731 32.8258 138.994 33.4168 139.519 33.8371C140.044 34.2311 140.78 34.4281 141.725 34.4281C142.251 34.4281 142.737 34.3756 143.183 34.2706ZM157.512 16.9734H162.437V19.6527C163.094 18.6545 163.961 17.8796 165.038 17.328C166.141 16.7764 167.441 16.5005 168.938 16.5005C172.09 16.5005 174.376 17.919 175.794 20.7559C176.451 19.39 177.396 18.3393 178.631 17.6038C179.866 16.8683 181.31 16.5005 182.965 16.5005C184.384 16.5005 185.723 16.8026 186.984 17.4068C188.245 18.0109 189.269 18.9172 190.057 20.1255C190.872 21.3338 191.279 22.8047 191.279 24.5385V38.2501H186.078V26.5479C186.078 24.8405 185.697 23.5402 184.935 22.6471C184.2 21.7541 183.175 21.3075 181.862 21.3075C180.443 21.3075 179.288 21.8459 178.394 22.9229C177.528 23.9998 177.094 25.4314 177.094 27.2177V38.2501H171.854V26.5479C171.854 24.788 171.46 23.4745 170.672 22.6077C169.91 21.741 168.859 21.3075 167.52 21.3075C166.101 21.3075 164.932 21.8459 164.013 22.9229C163.12 23.9998 162.674 25.4314 162.674 27.2177V38.2501H157.512V16.9734ZM208.161 38.7229C206.743 38.7229 205.403 38.4207 204.142 37.8166C202.908 37.1863 202.001 36.372 201.424 35.3737V38.2501H196.144V8.62027H201.345V19.8891C201.949 18.8909 202.855 18.0766 204.063 17.4462C205.272 16.8158 206.532 16.5005 207.846 16.5005C209.632 16.5005 211.221 16.9734 212.613 17.919C214.032 18.8384 215.135 20.1255 215.924 21.7803C216.712 23.4352 217.105 25.3133 217.105 27.4147C217.105 29.595 216.725 31.5519 215.962 33.2854C215.201 34.9929 214.137 36.3325 212.77 37.3045C211.431 38.2501 209.895 38.7229 208.161 38.7229ZM201.62 27.6117C201.62 29.5293 202.093 31.0922 203.039 32.3005C204.011 33.4824 205.259 34.0736 206.782 34.0736C208.253 34.0736 209.461 33.4563 210.407 32.2217C211.379 30.9609 211.865 29.3716 211.865 27.454C211.865 25.6416 211.392 24.1575 210.446 23.0017C209.501 21.8459 208.279 21.2681 206.782 21.2681C205.259 21.2681 204.011 21.8591 203.039 23.0412C202.093 24.2232 201.62 25.7468 201.62 27.6117ZM230.692 38.7229C228.644 38.7229 226.793 38.2501 225.138 37.3045C223.482 36.3325 222.182 35.0061 221.236 33.325C220.291 31.6439 219.819 29.7656 219.819 27.6905C219.819 25.4578 220.265 23.5009 221.158 21.8198C222.078 20.1386 223.338 18.8384 224.94 17.919C226.542 16.9734 228.368 16.5005 230.418 16.5005C232.335 16.5005 234.095 16.9471 235.697 17.8402C237.327 18.7333 238.64 20.1386 239.637 22.0561C240.635 23.9737 241.135 26.3902 241.135 29.306H225.059C225.059 30.2516 225.32 31.1054 225.847 31.867C226.372 32.6288 227.054 33.233 227.896 33.6796C228.763 34.0997 229.696 34.3099 230.692 34.3099C231.927 34.3099 233.017 34.0341 233.963 33.4824C234.908 32.931 235.631 32.2348 236.13 31.3942L240.227 33.2461C239.36 34.9009 238.075 36.2275 236.366 37.2256C234.685 38.2237 232.794 38.7229 230.692 38.7229ZM235.421 25.09C235.421 24.4858 235.238 23.8685 234.87 23.2382C234.528 22.5814 233.976 22.03 233.215 21.5833C232.48 21.1105 231.547 20.8741 230.418 20.8741C229.341 20.8741 228.421 21.1105 227.66 21.5833C226.897 22.03 226.319 22.5814 225.926 23.2382C225.558 23.8949 225.374 24.5122 225.374 25.09H235.421ZM254.913 38.1319C253.863 38.4996 252.852 38.6836 251.881 38.6836C250.251 38.6836 248.899 38.1844 247.822 37.1863C246.77 36.188 246.245 34.5596 246.245 32.3005V21.8198H242.541V16.9734H246.245V10.1963H251.29V16.9734H255.387V21.8198H251.29V31.7489C251.29 32.5107 251.486 33.0753 251.881 33.4431C252.274 33.811 252.773 33.9948 253.377 33.9948C253.929 33.9948 254.441 33.8766 254.913 33.6401V38.1319Z" fill="#BDFF00"/>
</svg>
