<svg width="718" height="100" viewBox="0 0 718 100" fill="none" xmlns="http://www.w3.org/2000/svg">
<path d="M37.4005 78.3641L24.5146 65.4782C15.4002 56.3638 0 62.8067 0 75.6926V92.5071H74.801V40.9636L37.4005 78.3641Z" fill="#BDFF00"/>
<path d="M37.4005 21.6359L50.2864 34.5218C59.4008 43.6362 74.801 37.1933 74.801 24.3074V7.49286H0V59.0364L37.4005 21.6359Z" fill="#BDFF00"/>
<path d="M125.626 76.9371C118.65 76.9371 112.637 75.4534 107.587 72.4859C102.589 69.5185 100.09 64.5467 100.09 57.5706H110.555C110.555 60.9545 112.09 63.3753 115.162 64.833C118.285 66.2387 121.774 66.9415 125.626 66.9415C129.218 66.9415 132.446 66.3688 135.309 65.2235C138.225 64.0261 139.682 62.0738 139.682 59.3667C139.682 57.5446 139.006 56.0869 137.652 54.9936C136.35 53.8483 134.685 52.9893 132.654 52.4166C130.676 51.8439 127.891 51.1932 124.298 50.4643C119.509 49.5272 115.604 48.5641 112.585 47.575C109.617 46.5858 107.066 44.9719 104.932 42.7333C102.797 40.4427 101.73 37.3191 101.73 33.3625C101.73 29.51 102.902 26.3083 105.244 23.7573C107.587 21.2063 110.581 19.3322 114.225 18.1348C117.869 16.9374 121.669 16.3387 125.626 16.3387C129.635 16.3387 133.513 17.0155 137.262 18.369C141.01 19.7226 144.055 21.7269 146.398 24.382C148.793 27.0371 149.99 30.2128 149.99 33.9091H138.355C138.355 31.254 137.105 29.3017 134.606 28.0523C132.16 26.7508 129.166 26.1 125.626 26.1C122.242 26.1 119.301 26.7247 116.802 27.9742C114.355 29.1716 113.132 31.0978 113.132 33.7529C113.132 35.3668 113.756 36.6683 115.006 37.6575C116.255 38.5945 117.817 39.3494 119.691 39.9221C121.565 40.4427 124.22 41.0154 127.656 41.6401C132.55 42.5772 136.533 43.5663 139.604 44.6075C142.676 45.5967 145.305 47.2626 147.491 49.6053C149.73 51.9481 150.849 55.1498 150.849 59.2105C150.849 63.3233 149.652 66.7072 147.257 69.3623C144.914 72.0174 141.817 73.9436 137.964 75.141C134.164 76.3384 130.051 76.9371 125.626 76.9371ZM179.026 75.7657C176.944 76.4946 174.939 76.859 173.013 76.859C169.785 76.859 167.104 75.8698 164.97 73.8916C162.887 71.9133 161.846 68.6855 161.846 64.2083V43.4362H154.506V33.831H161.846V20.3994H171.842V33.831H179.963V43.4362H171.842V63.115C171.842 64.6248 172.232 65.7441 173.013 66.4729C173.794 67.2018 174.783 67.5662 175.981 67.5662C177.074 67.5662 178.089 67.3319 179.026 66.8634V75.7657ZM187.995 33.831H198.147V38.9069C199.449 36.8765 201.089 35.4709 203.067 34.69C205.097 33.9091 207.362 33.5186 209.861 33.5186C211.006 33.5186 211.839 33.5447 212.36 33.5967V43.28C208.247 43.28 204.863 44.0088 202.208 45.4665C199.605 46.8722 198.303 49.6574 198.303 53.8222V76H187.995V33.831ZM236.795 76.9371C232.734 76.9371 229.064 76 225.784 74.1258C222.504 72.1996 219.927 69.5705 218.053 66.2387C216.179 62.9068 215.242 59.1845 215.242 55.0717C215.242 50.6465 216.127 46.768 217.897 43.4362C219.719 40.1043 222.218 37.5273 225.394 35.7052C228.569 33.831 232.188 32.8939 236.248 32.8939C240.049 32.8939 243.537 33.7789 246.712 35.549C249.94 37.3191 252.543 40.1043 254.521 43.9047C256.5 47.7051 257.489 52.4947 257.489 58.2734H225.628C225.628 60.1476 226.149 61.8395 227.19 63.3493C228.231 64.8591 229.585 66.0564 231.25 66.9415C232.968 67.7744 234.817 68.1909 236.795 68.1909C239.242 68.1909 241.402 67.6443 243.276 66.551C245.151 65.4578 246.582 64.0781 247.571 62.4122L255.693 66.0825C253.975 69.3623 251.424 71.9913 248.04 73.9696C244.708 75.9479 240.96 76.9371 236.795 76.9371ZM246.166 49.9177C246.166 48.7203 245.801 47.4969 245.073 46.2474C244.396 44.9459 243.302 43.8526 241.793 42.9676C240.335 42.0305 238.487 41.562 236.248 41.562C234.114 41.562 232.292 42.0305 230.782 42.9676C229.272 43.8526 228.127 44.9459 227.346 46.2474C226.617 47.5489 226.253 48.7724 226.253 49.9177H246.166ZM278.069 76.9371C273.644 76.9371 270.104 75.8698 267.449 73.7354C264.793 71.5488 263.466 68.6595 263.466 65.0673C263.466 58.82 267.006 54.6292 274.086 52.4947C275.96 51.922 278.642 51.2973 282.13 50.6205C285.253 50.0478 287.492 49.4752 288.845 48.9025C290.199 48.3299 290.876 47.3928 290.876 46.0912C290.876 44.998 290.277 44.139 289.08 43.5143C287.934 42.8375 286.373 42.473 284.394 42.421C282.468 42.421 280.62 42.8895 278.85 43.8266C277.08 44.7637 275.986 45.9351 275.57 47.3407L265.106 43.9828C266.355 40.2865 268.672 37.5533 272.056 35.7833C275.492 34.0132 279.501 33.1282 284.082 33.1282C289.652 33.1282 294.051 34.4037 297.279 36.9546C300.559 39.4535 302.199 43.0457 302.199 47.7312V76H291.422V71.9393C289.6 73.6573 287.492 74.9328 285.097 75.7657C282.702 76.5466 280.36 76.9371 278.069 76.9371ZM282.911 68.1128C287.127 67.2799 289.939 65.4838 291.344 62.7246V55.5402C290.355 56.3211 289.158 56.9459 287.752 57.4144C286.347 57.8309 284.524 58.2474 282.286 58.6639C279.37 59.2365 277.262 59.8612 275.96 60.538C274.711 61.1628 274.086 62.23 274.086 63.7398C274.086 65.2495 274.607 66.4209 275.648 67.2538C276.689 68.0347 278.147 68.4252 280.021 68.4252C281.062 68.4252 282.025 68.3211 282.911 68.1128ZM311.309 33.831H321.07V39.1412C322.372 37.1629 324.09 35.6271 326.224 34.5338C328.411 33.4405 330.988 32.8939 333.955 32.8939C340.202 32.8939 344.732 35.7052 347.543 41.3277C348.844 38.6206 350.718 36.5381 353.165 35.0805C355.612 33.6228 358.475 32.8939 361.755 32.8939C364.567 32.8939 367.222 33.4926 369.721 34.69C372.219 35.8874 374.25 37.6835 375.812 40.0783C377.426 42.473 378.232 45.3884 378.232 48.8244V76H367.924V52.8071C367.924 49.4231 367.17 46.8461 365.66 45.0761C364.202 43.306 362.172 42.421 359.569 42.421C356.757 42.421 354.467 43.4882 352.697 45.6227C350.979 47.7572 350.12 50.5945 350.12 54.1346V76H339.734V52.8071C339.734 49.319 338.953 46.716 337.391 44.998C335.881 43.28 333.799 42.421 331.144 42.421C328.332 42.421 326.016 43.4882 324.194 45.6227C322.424 47.7572 321.539 50.5945 321.539 54.1346V76H311.309V33.831ZM411.692 76.9371C408.881 76.9371 406.226 76.3384 403.727 75.141C401.28 73.8916 399.484 72.2777 398.338 70.2994V76H387.874V17.2758H398.182V39.6097C399.38 37.6314 401.176 36.0175 403.57 34.7681C405.965 33.5186 408.464 32.8939 411.067 32.8939C414.607 32.8939 417.757 33.831 420.516 35.7052C423.327 37.5273 425.514 40.0783 427.076 43.3581C428.638 46.6379 429.418 50.3602 429.418 54.525C429.418 58.8461 428.664 62.7246 427.154 66.1606C425.644 69.5445 423.536 72.1996 420.828 74.1258C418.173 76 415.128 76.9371 411.692 76.9371ZM398.729 54.9155C398.729 58.7159 399.666 61.8135 401.54 64.2083C403.466 66.551 405.939 67.7224 408.959 67.7224C411.874 67.7224 414.269 66.499 416.143 64.0521C418.069 61.5532 419.032 58.4036 419.032 54.6031C419.032 51.011 418.095 48.0695 416.221 45.7789C414.347 43.4882 411.926 42.3429 408.959 42.3429C405.939 42.3429 403.466 43.5143 401.54 45.857C399.666 48.1997 398.729 51.2192 398.729 54.9155ZM456.349 76.9371C452.288 76.9371 448.618 76 445.338 74.1258C442.058 72.1996 439.481 69.5705 437.607 66.2387C435.733 62.9068 434.796 59.1845 434.796 55.0717C434.796 50.6465 435.681 46.768 437.451 43.4362C439.273 40.1043 441.772 37.5273 444.948 35.7052C448.123 33.831 451.741 32.8939 455.802 32.8939C459.603 32.8939 463.091 33.7789 466.266 35.549C469.494 37.3191 472.097 40.1043 474.075 43.9047C476.054 47.7051 477.043 52.4947 477.043 58.2734H445.182C445.182 60.1476 445.702 61.8395 446.744 63.3493C447.785 64.8591 449.138 66.0564 450.804 66.9415C452.522 67.7744 454.371 68.1909 456.349 68.1909C458.796 68.1909 460.956 67.6443 462.83 66.551C464.705 65.4578 466.136 64.0781 467.125 62.4122L475.247 66.0825C473.529 69.3623 470.978 71.9913 467.594 73.9696C464.262 75.9479 460.514 76.9371 456.349 76.9371ZM465.72 49.9177C465.72 48.7203 465.355 47.4969 464.626 46.2474C463.95 44.9459 462.856 43.8526 461.347 42.9676C459.889 42.0305 458.041 41.562 455.802 41.562C453.668 41.562 451.846 42.0305 450.336 42.9676C448.826 43.8526 447.681 44.9459 446.9 46.2474C446.171 47.5489 445.807 48.7724 445.807 49.9177H465.72ZM504.353 75.7657C502.271 76.4946 500.267 76.859 498.34 76.859C495.113 76.859 492.431 75.8698 490.297 73.8916C488.214 71.9133 487.173 68.6855 487.173 64.2083V43.4362H479.833V33.831H487.173V20.3994H497.169V33.831H505.29V43.4362H497.169V63.115C497.169 64.6248 497.559 65.7441 498.34 66.4729C499.121 67.2018 500.11 67.5662 501.308 67.5662C502.401 67.5662 503.416 67.3319 504.353 66.8634V75.7657Z" fill="#BDFF00"/>
<rect x="524.263" y="14.9502" width="193.737" height="70.0996" rx="25.6392" fill="#BDFF00"/>
<path d="M557.113 31.7759H574.659C578.213 31.7759 580.944 32.5676 582.85 34.1509C584.756 35.7342 585.71 37.9799 585.71 40.888C585.71 42.6975 585.322 44.2969 584.546 45.6864C583.771 47.0435 582.64 48.1259 581.154 48.9337C583.125 49.6123 584.627 50.7109 585.661 52.2296C586.695 53.7482 587.212 55.5577 587.212 57.658C587.212 59.7583 586.727 61.6001 585.758 63.1834C584.789 64.7667 583.383 66.0107 581.541 66.9155C579.732 67.7879 577.599 68.2241 575.144 68.2241H557.113V31.7759ZM573.447 62.1656C578.132 62.1656 580.475 60.55 580.475 57.3188C580.475 55.6385 579.877 54.4268 578.682 53.6836C577.486 52.9081 575.58 52.5204 572.962 52.5204H563.753V62.1656H573.447ZM572.72 46.3164C576.856 46.3164 578.924 44.8462 578.924 41.9058C578.924 40.5164 578.423 39.4986 577.422 38.8523C576.452 38.1738 574.998 37.8345 573.059 37.8345H563.85V46.3164H572.72Z" fill="black"/>
<path d="M592.755 31.7759H619.412V37.7375H599.637V46.8981H617.813V52.9566H599.637V62.0686H619.848V68.2241H592.755V31.7759Z" fill="black"/>
<path d="M622.029 31.7759H652.564V37.6891H640.932V68.2241H633.952V37.6891H622.029V31.7759Z" fill="black"/>
<path d="M662.176 53.1989H672.694L667.362 38.1738L662.176 53.1989ZM662.661 31.7759H672.257L685.15 68.2241H678.025L674.923 59.5483H659.946L656.941 68.2241H649.429L662.661 31.7759Z" fill="black"/>
</svg>
